<?xml version="1.0" encoding="utf-8"?>
<!-- Uploaded to: SVG Repo, www.svgrepo.com, Generator: SVG Repo Mixer Tools -->
<svg fill="#000000" width="800px" height="800px" viewBox="0 0 32 32" version="1.1" xmlns="http://www.w3.org/2000/svg">
<title>emerald</title>
<path d="M21.925 21.73l2.404-8.972-6.547-6.562-8.951 2.41-2.404 8.972 6.547 6.562 8.951-2.41zM10.141 10.037l7.103-1.914 5.157 5.189-1.881 7.103-2.789 0.746c7.458-6.731-2.173-14.873-8.206-8.789l0.616-2.335zM19.82 0.923l-15.011 4.008-4.015 14.985 10.995 10.977 15.011-4.008 4.015-14.985-10.996-10.977zM17.822 2.288l-0.536 2.099c0 0 0 0 0 0h-0l0-0c-0.018-0.968-2.373-1.062-6.711-0.273l7.247-1.826zM2.754 17.513c3.171-1.906 4.098-8.119 2.268-10.312l2.048 1.903-1.881 7.423-2.435 0.986zM10.789 28.571c-0.326-2.781-1.769-5.362-4.411-8.974l4.876 5.144-0.465 3.83zM9.525 12.373l0.616-2.335 7.103-1.914 5.157 5.189-1.881 7.103-2.789 0.746c7.458-6.731-2.173-14.873-8.206-8.789zM17.223 28.629c3.824-1.65 5.201-2.335 5.676-3.593l1.514 1.55-7.19 2.042zM25.044 11.371c1.011-1.333-2.015-5.684-4.035-8.171l7.706 7.7-3.671 0.471zM25.793 13.822v0l3.74-0.29-1.826 7.247c0.42-4.298-0.002-5.669-1.913-6.957z"></path>
</svg>