<?xml version="1.0" encoding="utf-8"?>
<!-- Uploaded to: SVG Repo, www.svgrepo.com, Generator: SVG Repo Mixer Tools -->
<svg width="800px" height="800px" viewBox="0 0 64 64" xmlns="http://www.w3.org/2000/svg">
<title>magic-pot</title>
<g id="magic-pot">
<circle cx="25" cy="18" r="1"/>
<circle cx="33" cy="9" r="1"/>
<line x1="12" y1="6.463" x2="12" y2="7.878" style="fill:none;stroke:#000000;stroke-linecap:round;stroke-linejoin:round;stroke-width:2px"/>
<line x1="12" y1="12.122" x2="12" y2="13.537" style="fill:none;stroke:#000000;stroke-linecap:round;stroke-linejoin:round;stroke-width:2px"/>
<line x1="8.463" y1="10" x2="9.878" y2="10" style="fill:none;stroke:#000000;stroke-linecap:round;stroke-linejoin:round;stroke-width:2px"/>
<line x1="14.122" y1="10" x2="15.537" y2="10" style="fill:none;stroke:#000000;stroke-linecap:round;stroke-linejoin:round;stroke-width:2px"/>
<circle cx="45.5" cy="8.5" r="2.5" style="fill:none;stroke:#000000;stroke-linecap:round;stroke-linejoin:round;stroke-width:2px"/>
<line x1="53.837" y1="20.663" x2="50.163" y2="24.337" style="fill:none;stroke:#000000;stroke-linecap:round;stroke-linejoin:round;stroke-width:2px"/>
<line x1="50.163" y1="20.663" x2="53.837" y2="24.337" style="fill:none;stroke:#000000;stroke-linecap:round;stroke-linejoin:round;stroke-width:2px"/>
<path d="M35.711,50H21.829a5.63,5.63,0,0,1-3.308-1.075L1,34H49L40.612,47.134A5.624,5.624,0,0,1,35.711,50Z" style="fill:none;stroke:#000000;stroke-linecap:round;stroke-linejoin:round;stroke-width:2px"/>
<path d="M21,33.559V33.3A3.3,3.3,0,0,1,24.3,30h8.4A3.3,3.3,0,0,1,36,33.3v.258" style="fill:none;stroke:#000000;stroke-linecap:round;stroke-linejoin:round;stroke-width:2px"/>
<path d="M26,29.666V23.5A2.5,2.5,0,0,1,28.5,21h0A2.5,2.5,0,0,1,31,23.5v6.093" style="fill:none;stroke:#000000;stroke-linecap:round;stroke-linejoin:round;stroke-width:2px"/>
<path d="M25,26H18.773A5.772,5.772,0,0,0,13,31.773v1.786" style="fill:none;stroke:#000000;stroke-linecap:round;stroke-linejoin:round;stroke-width:2px"/>
<path d="M31,26h6.227A5.772,5.772,0,0,1,43,31.773v1.786" style="fill:none;stroke:#000000;stroke-linecap:round;stroke-linejoin:round;stroke-width:2px"/>
<line x1="7" y1="39" x2="22" y2="39" style="fill:none;stroke:#000000;stroke-linecap:round;stroke-linejoin:round;stroke-width:2px"/>
<line x1="25" y1="39" x2="31" y2="39" style="fill:none;stroke:#000000;stroke-linecap:round;stroke-linejoin:round;stroke-width:2px"/>
<path d="M26,50.358V52a2,2,0,0,1-2,2h0a3,3,0,0,0-2.989,2.739" style="fill:none;stroke:#000000;stroke-linecap:round;stroke-linejoin:round;stroke-width:2px"/>
<path d="M35.99,56.751A3,3,0,0,0,33,54h0a2,2,0,0,1-2-2V50.358" style="fill:none;stroke:#000000;stroke-linecap:round;stroke-linejoin:round;stroke-width:2px"/>
<path d="M48,34H60a3,3,0,0,1,3,3v3a3,3,0,0,1-3,3H59a3,3,0,0,1-3-3h0" style="fill:none;stroke:#000000;stroke-linecap:round;stroke-linejoin:round;stroke-width:2px"/>
<line x1="10" y1="57" x2="49" y2="57" style="fill:none;stroke:#000000;stroke-linecap:round;stroke-linejoin:round;stroke-width:2px"/>
</g>
</svg>